<?xml version="1.0" standalone="no"?>
<!DOCTYPE svg PUBLIC "-//W3C//DTD SVG 20010904//EN"
 "http://www.w3.org/TR/2001/REC-SVG-20010904/DTD/svg10.dtd">
<svg version="1.0" xmlns="http://www.w3.org/2000/svg"
 width="3000.000000pt" height="3000.000000pt" viewBox="0 0 3000.000000 3000.000000"
 preserveAspectRatio="xMidYMid meet">
<metadata>
Created by potrace 1.14, written by Peter Selinger 2001-2017
</metadata>
<g transform="translate(0.000000,3000.000000) scale(0.100000,-0.100000)"
fill="#000000" stroke="none">
<path d="M4369 23950 c-14 -4 -154 -8 -310 -9 -526 -3 -610 -7 -656 -25 -48
-20 -87 -66 -98 -116 -4 -19 -7 -146 -7 -282 1 -264 2 -271 55 -334 l24 -29
-2 -388 -1 -387 -32 -33 c-18 -18 -36 -47 -41 -64 -5 -18 -8 -3415 -8 -8080 2
-6589 4 -8052 15 -8071 7 -12 31 -36 54 -52 l41 -30 2891 0 c2439 1 2896 3
2923 15 17 7 45 32 61 54 25 34 29 51 32 113 4 83 4 3135 0 3504 -2 232 -3
242 -26 285 -61 113 -59 107 -42 126 14 16 15 132 15 1026 0 970 2 1051 28
1026 10 -11 102 -189 241 -469 240 -482 900 -1811 1139 -2295 607 -1228 868
-1742 897 -1772 17 -18 43 -36 57 -41 14 -5 313 -9 664 -10 717 -1 648 7 686
-77 10 -22 41 -87 68 -145 28 -58 63 -132 78 -165 15 -33 50 -107 77 -165 27
-58 70 -150 96 -205 86 -186 164 -331 318 -592 82 -139 107 -169 160 -189 43
-16 181 -17 2263 -17 2201 0 2217 0 2262 20 25 11 56 31 69 44 18 19 681 1336
681 1354 0 2 15 32 34 66 19 33 35 63 35 65 0 10 140 285 198 391 34 61 62
114 62 117 0 4 11 23 23 44 34 54 117 218 185 367 33 72 82 177 110 235 216
456 311 652 328 680 8 14 21 41 30 61 54 128 526 1032 572 1095 21 29 28 30
44 2 9 -18 12 -149 13 -548 1 -372 4 -531 12 -546 9 -16 7 -31 -13 -80 l-25
-59 0 -818 0 -819 25 -37 c14 -20 40 -45 58 -56 32 -19 61 -19 1003 -21 968
-1 1010 -2 1030 -34 4 -7 9 -308 10 -669 3 -816 -1 -793 144 -839 63 -20 81
-20 1785 -17 946 1 1737 5 1756 9 19 3 49 8 66 11 54 8 80 22 112 61 40 48 45
82 45 304 0 265 -7 300 -79 380 -20 22 -33 43 -30 49 3 5 6 69 7 142 0 87 5
141 13 158 10 19 13 81 12 233 -1 114 -4 210 -8 213 -3 3 4 17 17 29 13 13 33
43 46 67 l22 44 0 7995 c0 7693 0 7997 -18 8050 -22 67 -47 94 -105 115 -40
15 -122 17 -725 21 -374 2 -790 7 -925 10 -314 7 -5945 8 -6145 1 -82 -3 -318
-7 -524 -8 -360 -3 -375 -4 -421 -25 -53 -25 -78 -54 -119 -147 -16 -35 -45
-98 -64 -138 -19 -41 -88 -191 -152 -334 -65 -143 -131 -289 -147 -325 -17
-36 -36 -78 -43 -95 -7 -16 -27 -59 -43 -95 -52 -115 -178 -396 -217 -485 -7
-16 -24 -55 -38 -85 -14 -30 -72 -161 -130 -290 -125 -281 -412 -913 -494
-1090 -20 -41 -48 -102 -63 -135 -15 -33 -42 -91 -60 -130 -18 -38 -44 -95
-58 -125 -13 -30 -51 -111 -83 -179 -33 -68 -59 -125 -59 -126 0 -2 -23 -51
-51 -111 -28 -60 -78 -174 -110 -254 -33 -80 -66 -159 -74 -176 -8 -16 -27
-59 -43 -95 -16 -35 -90 -188 -164 -339 -142 -288 -208 -429 -290 -620 -27
-63 -55 -128 -63 -145 -7 -16 -49 -113 -93 -215 -44 -102 -92 -212 -107 -245
-28 -61 -36 -81 -110 -245 -24 -52 -93 -210 -155 -350 -139 -315 -169 -377
-186 -384 -23 -9 -36 14 -183 327 -22 49 -41 90 -41 92 0 2 -17 41 -39 87 -37
80 -55 120 -108 238 -14 30 -35 78 -48 105 -48 106 -198 436 -267 590 -28 61
-68 160 -90 220 -42 118 -84 209 -148 320 -21 39 -63 122 -91 185 -74 164
-197 436 -224 495 -13 28 -33 73 -45 100 -13 28 -35 77 -50 110 -117 257 -274
605 -377 835 -58 129 -115 258 -128 285 -12 28 -32 73 -45 100 -12 28 -32 73
-45 100 -13 28 -41 91 -63 140 -22 50 -108 241 -192 425 -83 184 -163 362
-177 395 -14 33 -45 99 -69 147 -40 80 -48 90 -97 115 l-52 28 -645 1 c-825 2
-786 1 -786 30 0 12 -10 47 -23 76 -13 29 -27 62 -31 73 -15 42 -115 245 -120
245 -4 0 -7 39 -7 88 -1 79 -4 94 -37 160 -20 40 -36 74 -36 77 0 2 -34 77
-76 167 -117 250 -131 283 -160 350 -14 35 -46 102 -71 149 -40 78 -48 88 -91
107 -34 14 -70 21 -127 21 -44 1 -96 5 -115 8 -46 10 -5297 12 -5331 3z"/>
</g>
</svg>
